<?xml version="1.0" standalone="no"?><!DOCTYPE svg PUBLIC "-//W3C//DTD SVG 1.1//EN" "http://www.w3.org/Graphics/SVG/1.1/DTD/svg11.dtd"><svg xmlns="http://www.w3.org/2000/svg" xmlnsXlink="http://www.w3.org/1999/xlink" version="1.1" viewBox="0 0 850 600" class="nvd3-svg DiscreteBar" style="width: 1020px; height: 720px; font-family: &quot;Helvetica Neue&quot;, Helvetica, Arial, sans-serif; font-size: 22px; background-color: rgb(255, 255, 255);" xmlns:xlink="http://www.w3.org/1999/xlink" width="850" height="600"><defs><style type="text/css"><![CDATA[
*, ::after, ::before { box-sizing: inherit; }
a { color: rgb(2, 117, 216); text-decoration: none; }
[role="button"], a, area, button, input, label, select, summary, textarea { touch-action: manipulation; }
@font-face { font-family: FontAwesome; src: url("25a32416abee198dd821b0b17a198a8f.eot?#iefix&v=4.6.3.1") format("embedded-opentype"), url("e6cf7c6ec7c2d6f670ae9d762604cb0b.woff2") format("woff2"), url("c8ddf1e5e5bf3682bc7bebf30f394148.woff") format("woff"), url("1dc35d25e61d819a9c357074014867ab.ttf") format("truetype"), url("d7c639084f684d66a1bc66855d193ed8.svg#fontawesomeregular") format("svg"); font-weight: 400; font-style: normal; }
.nvd3 .nv-axis { pointer-events: none; opacity: 1; }
.nvd3 .nv-axis path { fill: none; stroke: rgb(0, 0, 0); stroke-opacity: 0.75; shape-rendering: crispEdges; }
.nvd3 .nv-axis path.domain { stroke-opacity: 0.75; }
.nvd3 .nv-axis.nv-x path.domain { stroke-opacity: 0; }
.nvd3 .nv-axis line { fill: none; stroke: rgb(229, 229, 229); shape-rendering: crispEdges; }
.nvd3 .nv-axis .zero line, .nvd3 .nv-axis line.zero { stroke-opacity: 0.75; }
.nvd3 .nv-discretebar .nv-groups rect, .nvd3 .nv-multibar .nv-groups rect, .nvd3 .nv-multibarHorizontal .nv-groups rect { stroke-opacity: 0; transition: fill-opacity 0.25s linear; }
.nvd3 .nv-discretebar .nv-groups text, .nvd3 .nv-multibarHorizontal .nv-groups text { font-weight: 700; fill: rgb(0, 0, 0); stroke: transparent; }
.nvd3 text { font-style: normal; font-variant: normal; font-weight: normal; font-stretch: normal; font-size: 12px; line-height: normal; font-family: Arial; }
a { background-color: transparent; }
* { box-sizing: inherit; }
a { cursor: pointer; color: rgb(6, 69, 173); fill: rgb(6, 69, 173); }
#chart .header path { stroke: rgb(255, 255, 255); stroke-width: 1px; }
#chart .sourcesFooter, #chart .sourcesFooter a { fill: rgb(119, 119, 119); }
#chart .nv-custom-legend .nv-series { cursor: pointer; }
#chart .nv-custom-legend .nv-legend-text { fill: rgb(255, 255, 255); }
#chart .nvd3-svg { user-select: auto; }
#chart .nvd3-svg .nvd3 .nv-axis line { fill: none; stroke: rgb(165, 165, 165); stroke-dasharray: 2, 2; shape-rendering: crispEdges; }
#chart .nvd3-svg .nvd3 text { font-family: "Helvetica Neue", Helvetica, Arial, sans-serif; font-size: 14px; }
#chart .nvd3-svg .nvd3 .nv-axis line { opacity: 0.6; }

]]></style></defs><g class="chartTab" style="box-sizing: inherit;"><g class="header" style="box-sizing: inherit;"><g opacity="0.9" transform="translate(770.0038481233332, 15) scale(0.3074557888042951)" style="box-sizing: inherit;"><a xmlns:xlink="http://www.w3.org/1999/xlink" xlink:href="https://ourworldindata.org" target="_blank" style="text-decoration: none; touch-action: manipulation; background-color: transparent; box-sizing: inherit; cursor: pointer; color: rgb(6, 69, 173); fill: rgb(6, 69, 173);"><g style="box-sizing: inherit;"><rect x="0" y="0" fill="#1B2543" width="211.2" height="130.1" style="box-sizing: inherit;"></rect><rect x="0" y="112.2" fill="#E63912" width="211.2" height="17.9" style="box-sizing: inherit;"></rect><g style="box-sizing: inherit;"><rect x="1.2" y="12.3" fill="none" width="210.2" height="99.2" style="box-sizing: inherit;"></rect><path fill="#FFFFFF" d="M37.8,32.2c0,12.7-7.7,19.4-17.1,19.4c-9.7,0-16.6-7.5-16.6-18.7c0-11.7,7.3-19.3,17.1-19.3 C31.3,13.7,37.8,21.3,37.8,32.2z M9.2,32.8c0,7.9,4.3,14.9,11.8,14.9c7.5,0,11.8-6.9,11.8-15.3c0-7.3-3.8-14.9-11.8-14.9 C13.1,17.5,9.2,24.8,9.2,32.8z" style="box-sizing: inherit; stroke: rgb(255, 255, 255); stroke-width: 1px;"></path><path fill="#FFFFFF" d="M62.7,43.8c0,2.7,0.1,5.1,0.2,7.2h-4.3l-0.3-4.3h-0.1c-1.3,2.1-4,4.9-8.8,4.9c-4.2,0-9.1-2.3-9.1-11.6 V24.6h4.8v14.6c0,5,1.5,8.4,5.9,8.4c3.2,0,5.5-2.2,6.3-4.4c0.3-0.7,0.4-1.6,0.4-2.5V24.6h4.8V43.8z" style="box-sizing: inherit; stroke: rgb(255, 255, 255); stroke-width: 1px;"></path><path fill="#FFFFFF" d="M67.3,32.8c0-3.1-0.1-5.8-0.2-8.2h4.2l0.2,5.2h0.2c1.2-3.5,4.1-5.8,7.3-5.8c0.5,0,0.9,0.1,1.4,0.2v4.5 c-0.5-0.1-1-0.2-1.6-0.2c-3.4,0-5.8,2.6-6.5,6.2c-0.1,0.7-0.2,1.4-0.2,2.2V51h-4.8V32.8z" style="box-sizing: inherit; stroke: rgb(255, 255, 255); stroke-width: 1px;"></path><path fill="#FFFFFF" d="M95.4,51l-9.4-36.8h5l4.4,18.6c1.1,4.6,2.1,9.2,2.7,12.7h0.1c0.6-3.7,1.8-8,3-12.8l4.9-18.5h5l4.5,18.7 c1,4.4,2,8.7,2.6,12.6h0.1c0.8-4,1.8-8.1,3-12.7l4.9-18.5h4.9L120.6,51h-5L111,31.9c-1.1-4.7-1.9-8.3-2.4-12h-0.1 c-0.7,3.7-1.5,7.3-2.8,12L100.4,51H95.4z" style="box-sizing: inherit; stroke: rgb(255, 255, 255); stroke-width: 1px;"></path><path fill="#FFFFFF" d="M154.9,37.6c0,9.8-6.8,14-13.2,14c-7.2,0-12.7-5.2-12.7-13.6c0-8.8,5.8-14,13.1-14 C149.8,24,154.9,29.5,154.9,37.6z M133.9,37.9c0,5.8,3.3,10.1,8,10.1c4.6,0,8-4.3,8-10.3c0-4.5-2.2-10.1-7.9-10.1 C136.3,27.6,133.9,32.8,133.9,37.9z" style="box-sizing: inherit; stroke: rgb(255, 255, 255); stroke-width: 1px;"></path><path fill="#FFFFFF" d="M158.2,32.8c0-3.1-0.1-5.8-0.2-8.2h4.2l0.2,5.2h0.2c1.2-3.5,4.1-5.8,7.3-5.8c0.5,0,0.9,0.1,1.4,0.2v4.5 c-0.5-0.1-1-0.2-1.6-0.2c-3.4,0-5.8,2.6-6.5,6.2c-0.1,0.7-0.2,1.4-0.2,2.2V51h-4.8V32.8z" style="box-sizing: inherit; stroke: rgb(255, 255, 255); stroke-width: 1px;"></path><path fill="#FFFFFF" d="M173.5,12.3h4.8V51h-4.8V12.3z" style="box-sizing: inherit; stroke: rgb(255, 255, 255); stroke-width: 1px;"></path><path fill="#FFFFFF" d="M206.5,12.3v31.9c0,2.3,0.1,5,0.2,6.8h-4.3l-0.2-4.6H202c-1.5,2.9-4.7,5.2-9,5.2 c-6.4,0-11.3-5.4-11.3-13.4c-0.1-8.8,5.4-14.2,11.9-14.2c4,0,6.8,1.9,8,4h0.1V12.3H206.5z M201.7,35.4c0-0.6-0.1-1.4-0.2-2 c-0.7-3.1-3.3-5.6-6.9-5.6c-5,0-7.9,4.4-7.9,10.2c0,5.3,2.6,9.8,7.8,9.8c3.2,0,6.2-2.1,7.1-5.7c0.2-0.7,0.2-1.3,0.2-2.1V35.4z" style="box-sizing: inherit; stroke: rgb(255, 255, 255); stroke-width: 1px;"></path><path fill="#FFFFFF" d="M42.8,64c0.1,1.6-1.1,2.9-3.1,2.9c-1.7,0-2.9-1.3-2.9-2.9c0-1.7,1.3-3,3-3C41.7,61,42.8,62.3,42.8,64z M37.4,97.8V71.4h4.8v26.4H37.4z" style="box-sizing: inherit; stroke: rgb(255, 255, 255); stroke-width: 1px;"></path><path fill="#FFFFFF" d="M47.5,78.6c0-2.7-0.1-5-0.2-7.1h4.3l0.3,4.4h0.1c1.3-2.5,4.4-5,8.8-5c3.7,0,9.4,2.2,9.4,11.2v15.8h-4.8 V82.6c0-4.3-1.6-7.8-6.1-7.8c-3.2,0-5.6,2.2-6.5,4.9c-0.2,0.6-0.3,1.4-0.3,2.2v15.9h-4.8V78.6z" style="box-sizing: inherit; stroke: rgb(255, 255, 255); stroke-width: 1px;"></path><path fill="#FFFFFF" d="M84,61.6c2.9-0.4,6.3-0.8,10.1-0.8c6.8,0,11.7,1.6,14.9,4.6c3.3,3,5.2,7.3,5.2,13.2c0,6-1.9,10.9-5.3,14.3 c-3.4,3.4-9.1,5.3-16.3,5.3c-3.4,0-6.2-0.2-8.6-0.4V61.6z M88.8,94.1c1.2,0.2,3,0.3,4.8,0.3c10.2,0,15.7-5.7,15.7-15.6 c0.1-8.7-4.9-14.2-14.9-14.2c-2.5,0-4.3,0.2-5.6,0.5V94.1z" style="box-sizing: inherit; stroke: rgb(255, 255, 255); stroke-width: 1px;"></path><path fill="#FFFFFF" d="M132.1,97.8l-0.4-3.3h-0.2c-1.5,2.1-4.3,3.9-8.1,3.9c-5.4,0-8.1-3.8-8.1-7.6c0-6.4,5.7-9.9,15.9-9.8v-0.5 c0-2.2-0.6-6.1-6-6.1c-2.5,0-5,0.8-6.9,2l-1.1-3.2c2.2-1.4,5.4-2.3,8.7-2.3c8.1,0,10.1,5.5,10.1,10.8v9.9c0,2.3,0.1,4.5,0.4,6.3 H132.1z M131.4,84.4c-5.3-0.1-11.2,0.8-11.2,5.9c0,3.1,2.1,4.6,4.5,4.6c3.4,0,5.6-2.2,6.4-4.4c0.2-0.5,0.3-1,0.3-1.5V84.4z" style="box-sizing: inherit; stroke: rgb(255, 255, 255); stroke-width: 1px;"></path><path fill="#FFFFFF" d="M146.6,63.9v7.6h6.9v3.7h-6.9v14.2c0,3.3,0.9,5.1,3.6,5.1c1.3,0,2.2-0.2,2.8-0.3l0.2,3.6 c-0.9,0.4-2.4,0.7-4.3,0.7c-2.2,0-4-0.7-5.2-2c-1.4-1.4-1.9-3.8-1.9-6.9V75.1h-4.1v-3.7h4.1v-6.3L146.6,63.9z" style="box-sizing: inherit; stroke: rgb(255, 255, 255); stroke-width: 1px;"></path><path fill="#FFFFFF" d="M171.4,97.8l-0.4-3.3h-0.2c-1.5,2.1-4.3,3.9-8.1,3.9c-5.4,0-8.1-3.8-8.1-7.6c0-6.4,5.7-9.9,15.9-9.8v-0.5 c0-2.2-0.6-6.1-6-6.1c-2.5,0-5,0.8-6.9,2l-1.1-3.2c2.2-1.4,5.4-2.3,8.7-2.3c8.1,0,10.1,5.5,10.1,10.8v9.9c0,2.3,0.1,4.5,0.4,6.3 H171.4z M170.7,84.4c-5.3-0.1-11.2,0.8-11.2,5.9c0,3.1,2.1,4.6,4.5,4.6c3.4,0,5.6-2.2,6.4-4.4c0.2-0.5,0.3-1,0.3-1.5V84.4z" style="box-sizing: inherit; stroke: rgb(255, 255, 255); stroke-width: 1px;"></path></g></g></a></g><a href="https://ourworldindata.org/grapher/correlation-mental-illness-and-life-satisfaction?v=8c6ce98033739b0cb89f69c62245cd0a" target="_blank" style="text-decoration: none; touch-action: manipulation; background-color: transparent; box-sizing: inherit; cursor: pointer; color: rgb(6, 69, 173); fill: rgb(6, 69, 173);"><text width="745.0038481233332" font-size="1.15em" lineHeight="1" x="0" y="35.239999999999995" style="box-sizing: inherit; fill: rgb(85, 85, 85);"><tspan x="15" dy="0" style="box-sizing: inherit;">Conditional correlation between mental illness and life satisfaction</tspan></text></a><text width="745.0038481233332" font-size="0.6em" x="0" y="43.18" style="box-sizing: inherit; fill: rgb(102, 102, 102);"><tspan x="15" dy="0" style="box-sizing: inherit;"></tspan><tspan x="15" dy="1.1em" style="box-sizing: inherit;">The correlation reported is conditional on the factors listed in the footnote.
Mental illness refers to depression and anxiety.</tspan></text></g><g class="sourcesFooter" style="box-sizing: inherit; fill: rgb(119, 119, 119);"><a style="text-decoration: none; touch-action: manipulation; background-color: transparent; box-sizing: inherit; cursor: pointer; color: rgb(6, 69, 173); fill: rgb(119, 119, 119);"><text maxWidth="820" font-size="0.5em" x="0" y="544.6999999999999" style="box-sizing: inherit;"><tspan x="15" dy="0" style="box-sizing: inherit;">Source: Clark et al. in World Happiness Report (2017)</tspan></text></a><text maxWidth="820" font-size="0.5em" x="0" y="557.6999999999999" style="box-sizing: inherit;"><tspan x="15" dy="0" style="box-sizing: inherit;">Note: Specifically, the correlation corresponds to the relationship between life satisfaction and mental illness after accounting for differences in income, education,</tspan><tspan x="15" dy="1.1em" style="box-sizing: inherit;">marital status, physical illness, employment status and gender.</tspan></text><text raw="true" maxWidth="2460" font-size="0.5em" x="0" y="582.8" style="box-sizing: inherit;"><tspan x="15" dy="0" style="box-sizing: inherit;"><a class="origin-link" target="_blank" href="https://ourworldindata.org/happiness-and-life-satisfaction/" style="text-decoration: none; touch-action: manipulation; background-color: transparent; box-sizing: inherit; cursor: pointer; color: rgb(6, 69, 173); fill: rgb(119, 119, 119);">OurWorldInData.org/happiness-and-life-satisfaction/</a> • <a class="licence-link" href="http://creativecommons.org/licenses/by-sa/4.0/deed.en_US" target="_blank" style="text-decoration: none; touch-action: manipulation; background-color: transparent; box-sizing: inherit; cursor: pointer; color: rgb(6, 69, 173); fill: rgb(119, 119, 119);">CC BY-SA</a></tspan></text></g></g><g class="nvd3 nv-custom-legend" style="box-sizing: inherit;"><g class="nv-legend-series-wrapper" transform="translate(60,79.69999999999999)" style="box-sizing: inherit;"><g class="nv-series" transform="translate(0,0)" style="box-sizing: inherit; cursor: pointer;"><rect class="nv-legend-symbol" width="102.03228759765625" style="box-sizing: inherit; stroke-width: 2; fill: rgb(51, 96, 169); stroke: rgb(51, 96, 169);" height="24" y="-12" x="-8"></rect><text text-anchor="start" class="nv-legend-text" dy=".32em" dx="0" style="font-style: normal; font-variant-ligatures: normal; font-variant-caps: normal; font-weight: normal; font-stretch: normal; line-height: normal; box-sizing: inherit; fill: rgb(255, 255, 255); font-family: &quot;Helvetica Neue&quot;, Helvetica, Arial, sans-serif; font-size: 14px;">United States</text></g><g class="nv-series" transform="translate(106.03228759765625,0)" style="box-sizing: inherit; cursor: pointer;"><rect class="nv-legend-symbol" width="72.45865249633789" style="box-sizing: inherit; stroke-width: 2; fill: rgb(202, 38, 40); stroke: rgb(202, 38, 40);" height="24" y="-12" x="-8"></rect><text text-anchor="start" class="nv-legend-text" dy=".32em" dx="0" style="font-style: normal; font-variant-ligatures: normal; font-variant-caps: normal; font-weight: normal; font-stretch: normal; line-height: normal; box-sizing: inherit; fill: rgb(255, 255, 255); font-family: &quot;Helvetica Neue&quot;, Helvetica, Arial, sans-serif; font-size: 14px;">Australia</text></g><g class="nv-series" transform="translate(182.49094009399414,0)" style="box-sizing: inherit; cursor: pointer;"><rect class="nv-legend-symbol" width="117.5948257446289" style="box-sizing: inherit; stroke-width: 2; fill: rgb(52, 152, 63); stroke: rgb(52, 152, 63);" height="24" y="-12" x="-8"></rect><text text-anchor="start" class="nv-legend-text" dy=".32em" dx="0" style="font-style: normal; font-variant-ligatures: normal; font-variant-caps: normal; font-weight: normal; font-stretch: normal; line-height: normal; box-sizing: inherit; fill: rgb(255, 255, 255); font-family: &quot;Helvetica Neue&quot;, Helvetica, Arial, sans-serif; font-size: 14px;">United Kingdom</text></g><g class="nv-series" transform="translate(304.08576583862305,0)" style="box-sizing: inherit; cursor: pointer;"><rect class="nv-legend-symbol" width="78.70555114746094" height="24" y="-12" x="-8" style="box-sizing: inherit; stroke-width: 2; fill: rgb(237, 108, 45); stroke: rgb(237, 108, 45);"></rect><text text-anchor="start" class="nv-legend-text" dy=".32em" dx="0" style="font-style: normal; font-variant-ligatures: normal; font-variant-caps: normal; font-weight: normal; font-stretch: normal; line-height: normal; box-sizing: inherit; fill: rgb(255, 255, 255); font-family: &quot;Helvetica Neue&quot;, Helvetica, Arial, sans-serif; font-size: 14px;">Indonesia</text></g></g></g><g class="nvd3 nv-wrap nv-discreteBarWithAxes" style="box-sizing: inherit;"><g transform="translate(85,121.69999999999999)" style="box-sizing: inherit;"><defs style="box-sizing: inherit;"><clipPath id="nv-x-label-clip-9444" style="box-sizing: inherit;"><rect width="153.65853658536588" height="16" x="-76.82926829268294" style="box-sizing: inherit;"></rect></clipPath></defs><g class="nv-x nv-axis nvd3-svg" transform="translate(0,378.19999999999993)" style="pointer-events: none; opacity: 1; box-sizing: inherit; user-select: auto;"><g class="nvd3 nv-wrap nv-axis" style="pointer-events: none; opacity: 1; box-sizing: inherit;"><g style="box-sizing: inherit;"><g class="tick zero" transform="translate(93.90243902439026,0)" style="box-sizing: inherit; opacity: 1;"><line y2="-374.19999999999993" x2="0" style="stroke-opacity: 0.75; box-sizing: inherit; fill: none; stroke: rgb(165, 165, 165); stroke-dasharray: 2, 2; shape-rendering: crispEdges; opacity: 0.6;"></line><text dy=".71em" y="3" x="0" transform="translate(0,0)" style="font-style: normal; font-variant-ligatures: normal; font-variant-caps: normal; font-weight: normal; font-stretch: normal; line-height: normal; box-sizing: inherit; font-family: &quot;Helvetica Neue&quot;, Helvetica, Arial, sans-serif; font-size: 14px; text-anchor: middle;">United States</text></g><g class="tick zero" transform="translate(264.6341463414634,0)" style="box-sizing: inherit; opacity: 1;"><line y2="-374.19999999999993" x2="0" style="stroke-opacity: 0.75; box-sizing: inherit; fill: none; stroke: rgb(165, 165, 165); stroke-dasharray: 2, 2; shape-rendering: crispEdges; opacity: 0.6;"></line><text dy=".71em" y="3" x="0" transform="translate(0,0)" style="font-style: normal; font-variant-ligatures: normal; font-variant-caps: normal; font-weight: normal; font-stretch: normal; line-height: normal; box-sizing: inherit; font-family: &quot;Helvetica Neue&quot;, Helvetica, Arial, sans-serif; font-size: 14px; text-anchor: middle;">Australia</text></g><g class="tick zero" transform="translate(435.3658536585366,0)" style="box-sizing: inherit; opacity: 1;"><line y2="-374.19999999999993" x2="0" style="stroke-opacity: 0.75; box-sizing: inherit; fill: none; stroke: rgb(165, 165, 165); stroke-dasharray: 2, 2; shape-rendering: crispEdges; opacity: 0.6;"></line><text dy=".71em" y="3" x="0" transform="translate(0,0)" style="font-style: normal; font-variant-ligatures: normal; font-variant-caps: normal; font-weight: normal; font-stretch: normal; line-height: normal; box-sizing: inherit; font-family: &quot;Helvetica Neue&quot;, Helvetica, Arial, sans-serif; font-size: 14px; text-anchor: middle;">United Kingdom</text></g><g class="tick zero" transform="translate(606.0975609756099,0)" style="box-sizing: inherit; opacity: 1;"><line y2="-374.19999999999993" x2="0" style="stroke-opacity: 0.75; box-sizing: inherit; fill: none; stroke: rgb(165, 165, 165); stroke-dasharray: 2, 2; shape-rendering: crispEdges; opacity: 0.6;"></line><text dy=".71em" y="3" x="0" transform="translate(0,0)" style="font-style: normal; font-variant-ligatures: normal; font-variant-caps: normal; font-weight: normal; font-stretch: normal; line-height: normal; box-sizing: inherit; font-family: &quot;Helvetica Neue&quot;, Helvetica, Arial, sans-serif; font-size: 14px; text-anchor: middle;">Indonesia</text></g><path class="domain" d="M0,0V0H700V0" style="fill: none; stroke: rgb(0, 0, 0); shape-rendering: crispEdges; box-sizing: inherit; stroke-opacity: 1;"></path><text class="nv-axislabel" text-anchor="middle" y="36" x="350.00000000000006" style="font-style: normal; font-variant-ligatures: normal; font-variant-caps: normal; font-weight: normal; font-stretch: normal; line-height: normal; box-sizing: inherit; font-family: &quot;Helvetica Neue&quot;, Helvetica, Arial, sans-serif; font-size: 14px;"></text></g></g></g><g class="nv-y nv-axis nvd3-svg" style="pointer-events: none; opacity: 1; box-sizing: inherit; user-select: auto;"><g class="nv-zeroLine" style="box-sizing: inherit;"><line x1="0" x2="700" y1="0" y2="0" style="box-sizing: inherit; fill: none; stroke: rgb(165, 165, 165); stroke-dasharray: 2, 2; shape-rendering: crispEdges; opacity: 0.6;"></line></g><g class="nvd3 nv-wrap nv-axis" style="pointer-events: none; opacity: 1; box-sizing: inherit;"><g style="box-sizing: inherit;"><g class="tick" transform="translate(0,344.9523809523809)" style="box-sizing: inherit; opacity: 1;"><line x2="700" y2="0" style="box-sizing: inherit; fill: none; stroke: rgb(165, 165, 165); stroke-dasharray: 2, 2; shape-rendering: crispEdges; opacity: 0.6;"></line><text dy=".32em" x="-3" y="0" style="font-style: normal; font-variant-ligatures: normal; font-variant-caps: normal; font-weight: normal; font-stretch: normal; line-height: normal; box-sizing: inherit; font-family: &quot;Helvetica Neue&quot;, Helvetica, Arial, sans-serif; font-size: 14px; text-anchor: end;">-0.2</text></g><g class="tick" transform="translate(0,172.47619047619048)" style="box-sizing: inherit; opacity: 1;"><line x2="700" y2="0" style="box-sizing: inherit; fill: none; stroke: rgb(165, 165, 165); stroke-dasharray: 2, 2; shape-rendering: crispEdges; opacity: 0.6;"></line><text dy=".32em" x="-3" y="0" style="font-style: normal; font-variant-ligatures: normal; font-variant-caps: normal; font-weight: normal; font-stretch: normal; line-height: normal; box-sizing: inherit; font-family: &quot;Helvetica Neue&quot;, Helvetica, Arial, sans-serif; font-size: 14px; text-anchor: end;">-0.1</text></g><g class="tick zero" transform="translate(0,0)" style="box-sizing: inherit; opacity: 1;"><line x2="700" y2="0" style="stroke-opacity: 0.75; box-sizing: inherit; fill: none; stroke: rgb(165, 165, 165); stroke-dasharray: 2, 2; shape-rendering: crispEdges; opacity: 0.6;"></line><text dy=".32em" x="-3" y="0" style="font-style: normal; font-variant-ligatures: normal; font-variant-caps: normal; font-weight: normal; font-stretch: normal; line-height: normal; box-sizing: inherit; font-family: &quot;Helvetica Neue&quot;, Helvetica, Arial, sans-serif; font-size: 14px; text-anchor: end;">0</text></g><path class="domain" d="M0,0H0V362.19999999999993H0" style="fill: none; stroke: rgb(0, 0, 0); shape-rendering: crispEdges; stroke-opacity: 0.75; box-sizing: inherit;"></path><text class="nv-axislabel" transform="rotate(-90)" y="-40" x="-181.09999999999997" style="font-style: normal; font-variant-ligatures: normal; font-variant-caps: normal; font-weight: normal; font-stretch: normal; line-height: normal; box-sizing: inherit; font-family: &quot;Helvetica Neue&quot;, Helvetica, Arial, sans-serif; font-size: 14px; text-anchor: middle;">Partial correlation coefficient</text></g></g></g><g class="nv-barsWrap nvd3-svg" style="box-sizing: inherit; user-select: auto;"><g class="nvd3 nv-wrap nv-discretebar" transform="translate(0,0)" style="box-sizing: inherit;"><g style="box-sizing: inherit;"><g class="nv-groups" style="box-sizing: inherit;"><g class="nv-group nv-series-0" style="box-sizing: inherit; stroke-opacity: 1; fill-opacity: 0.75;"><g transform="translate(24.75609756097561, 0)" class="nv-bar negative" style="box-sizing: inherit; fill: rgb(51, 96, 169); stroke: rgb(51, 96, 169);"><rect height="362.19999999999993" width="138.2926829268293" class="discreteBar" style="stroke-opacity: 0; transition: fill-opacity 0.25s linear; box-sizing: inherit;"></rect><text text-anchor="middle" x="69.14634146341464" y="374.19999999999993" style="fill: rgb(0, 0, 0); stroke: transparent; font-style: normal; font-variant-ligatures: normal; font-variant-caps: normal; font-weight: normal; font-stretch: normal; line-height: normal; box-sizing: inherit; font-family: &quot;Helvetica Neue&quot;, Helvetica, Arial, sans-serif; font-size: 14px;">-0.21</text></g><g transform="translate(195.4878048780488, 0)" class="nv-bar negative" style="box-sizing: inherit; fill: rgb(202, 38, 40); stroke: rgb(202, 38, 40);"><rect height="310.4571428571428" width="138.2926829268293" class="discreteBar" style="stroke-opacity: 0; transition: fill-opacity 0.25s linear; box-sizing: inherit;"></rect><text text-anchor="middle" x="69.14634146341464" y="322.4571428571428" style="fill: rgb(0, 0, 0); stroke: transparent; font-style: normal; font-variant-ligatures: normal; font-variant-caps: normal; font-weight: normal; font-stretch: normal; line-height: normal; box-sizing: inherit; font-family: &quot;Helvetica Neue&quot;, Helvetica, Arial, sans-serif; font-size: 14px;">-0.18</text></g><g transform="translate(366.219512195122, 0)" class="nv-bar negative" style="box-sizing: inherit; fill: rgb(52, 152, 63); stroke: rgb(52, 152, 63);"><rect height="189.7238095238095" width="138.2926829268293" class="discreteBar" style="stroke-opacity: 0; transition: fill-opacity 0.25s linear; box-sizing: inherit;"></rect><text text-anchor="middle" x="69.14634146341464" y="201.7238095238095" style="fill: rgb(0, 0, 0); stroke: transparent; font-style: normal; font-variant-ligatures: normal; font-variant-caps: normal; font-weight: normal; font-stretch: normal; line-height: normal; box-sizing: inherit; font-family: &quot;Helvetica Neue&quot;, Helvetica, Arial, sans-serif; font-size: 14px;">-0.11</text></g><g transform="translate(536.9512195121952, 0)" class="nv-bar negative" style="box-sizing: inherit; fill: rgb(237, 108, 45); stroke: rgb(237, 108, 45);"><rect height="120.73333333333332" width="138.2926829268293" class="discreteBar" style="stroke-opacity: 0; transition: fill-opacity 0.25s linear; box-sizing: inherit;"></rect><text text-anchor="middle" x="69.14634146341464" y="132.73333333333332" style="fill: rgb(0, 0, 0); stroke: transparent; font-style: normal; font-variant-ligatures: normal; font-variant-caps: normal; font-weight: normal; font-stretch: normal; line-height: normal; box-sizing: inherit; font-family: &quot;Helvetica Neue&quot;, Helvetica, Arial, sans-serif; font-size: 14px;">-0.07</text></g></g></g></g></g></g><g class="nv-legendWrap" style="box-sizing: inherit;"></g></g></g></svg>